<?xml version="1.0" encoding="utf-8"?>
<!-- Generator: Adobe Illustrator 27.2.0, SVG Export Plug-In . SVG Version: 6.00 Build 0)  -->
<svg version="1.1" id="Layer_1" xmlns:inkscape="http://www.inkscape.org/namespaces/inkscape"
	 xmlns="http://www.w3.org/2000/svg" xmlns:xlink="http://www.w3.org/1999/xlink" x="0px" y="0px" width="179.433px"
	 height="363.685px" viewBox="0 0 179.433 363.685" style="enable-background:new 0 0 179.433 363.685;" xml:space="preserve">
<style type="text/css">
	.st0{fill:none;stroke:#FF0000;stroke-width:0.2835;stroke-miterlimit:11.3386;}
</style>
<g id="global-translation-frame" transform="translate(67, 34.5) scale(1, -1)">
	<g id="Cut_1" inkscape:groupmode="layer" inkscape:label="Cut">
		<path class="st0" d="M-43.898,7.146c2.348,0,4.252,1.904,4.252,4.252s-1.904,4.252-4.252,4.252c-2.348,0-4.252-1.904-4.252-4.252
			S-46.246,7.146-43.898,7.146 M-45.102-33.597h19.417V0.844h-25.087v-34.441H-45.102 M-45.102-71.864h19.417v34.441h-25.087
			v-34.441H-45.102 M-45.102-110.132h19.417v34.441h-25.087v-34.441H-45.102 M-45.102-147.827h19.417v34.441h-25.087v-34.441
			H-45.102 M-25.685-154.457v2.231h-25.087v-34.441h25.087V-154.457 M-7.436-152.227h-2.234v-34.441h25.087v34.441H-7.436
			 M-7.436-113.386h-2.234v-34.441h25.087v34.441H-7.436 M-7.436-75.691h-2.234v-34.441h25.087v34.441H-7.436 M-7.402-37.423h-2.268
			v-34.441h25.087v34.441H-7.402 M13.15-33.597h2.268V0.844H-9.669v-34.441H13.15 M32.85-31.329v-2.268h25.087V0.844H32.85V-31.329
			 M32.85-69.597v-2.268h25.087v34.441H32.85V-69.597 M32.85-107.864v-2.268h25.087v34.441H32.85V-107.864 M32.85-145.56v-2.268
			h25.087v34.441H32.85V-145.56 M57.937-154.457v2.231H32.85v-34.441h25.087V-154.457 M71.118-184.434v-2.234h25.087v34.441H71.118
			V-184.434 M71.118-223.277v-2.231h25.087v34.441H71.118V-223.277 M79.622-263.776h16.583v34.441H71.118v-34.441H79.622
			 M86.7-302.741c-1.846-1.452-2.165-4.125-0.713-5.971c0-0.001,0.001-0.001,0.001-0.002c1.452-1.846,4.125-2.165,5.971-0.713
			c0.001,0,0.001,0.001,0.002,0.001c1.846,1.452,2.165,4.125,0.713,5.971c0,0.001-0.001,0.001-0.001,0.002
			c-1.452,1.846-4.125,2.165-5.971,0.713C86.701-302.74,86.701-302.74,86.7-302.741 M22.342-226.355
			c5.902,0,10.687,4.785,10.687,10.687l0,0c0,5.902-4.785,10.687-10.687,10.687c0,0,0,0,0,0c-5.902,0-10.687-4.785-10.687-10.687
			l0,0C11.656-221.571,16.44-226.355,22.342-226.355C22.342-226.355,22.342-226.355,22.342-226.355 M-40.556-303.452
			c-1.452,1.846-4.125,2.165-5.971,0.713c-0.001,0-0.001-0.001-0.002-0.001c-1.846-1.452-2.165-4.125-0.713-5.971
			c0-0.001,0.001-0.001,0.001-0.002c1.452-1.846,4.125-2.165,5.971-0.713c0.001,0,0.001,0.001,0.002,0.001
			c1.846,1.452,2.165,4.125,0.713,5.971C-40.555-303.453-40.555-303.453-40.556-303.452 M73.349-113.386h-2.231v-34.441h25.087
			v34.441H73.349 M73.349-75.691h-2.231v-34.441h25.087v34.441H73.349 M73.386-37.423h-2.268v-34.441h25.087v34.441H73.386
			 M84.866,0.844H71.118v-34.441h25.087V0.844H84.866 M87.675,7.483c2.162-0.913,4.655,0.098,5.57,2.259
			c0.913,2.162-0.098,4.655-2.259,5.57c-2.162,0.913-4.655-0.098-5.57-2.259C84.503,10.891,85.514,8.398,87.675,7.483
			 M112.291,7.483v-327.739c0-4.853-3.934-8.787-8.787-8.787H-58.071c-4.853,0-8.787,3.934-8.787,8.787V25.571
			c0,4.853,3.934,8.787,8.787,8.787h161.575c4.853,0,8.787-3.934,8.787-8.787V7.483"/>
	</g>
</g>
</svg>
