<?xml version="1.0" encoding="utf-8"?>
<!-- Generator: Adobe Illustrator 27.2.0, SVG Export Plug-In . SVG Version: 6.00 Build 0)  -->
<svg version="1.1" xmlns="http://www.w3.org/2000/svg" xmlns:xlink="http://www.w3.org/1999/xlink" x="0px" y="0px"
	 width="179.433px" height="363.685px" viewBox="0 0 179.433 363.685" style="enable-background:new 0 0 179.433 363.685;"
	 xml:space="preserve">
<style type="text/css">
	.st0{fill:none;stroke:#FF0000;stroke-width:0.2835;stroke-miterlimit:11.3386;}
	.st1{display:none;}
	.st2{display:inline;}
	.st3{font-family:'FuturaPTCond-Bold';}
	.st4{font-size:10px;}
</style>
<g id="Layer_1" xmlns:inkscape="http://www.inkscape.org/namespaces/inkscape">
	<g id="global-translation-frame" transform="translate(67, 34.5) scale(1, -1)">
		<g id="Cut_1" inkscape:groupmode="layer" inkscape:label="Cut">
			<path class="st0" d="M-2.795-108.006h14.173c2.074,0,3.756,1.682,3.756,3.756v22.677c0,2.074-1.682,3.756-3.756,3.756h0H-5.63
				c-2.074,0-3.756-1.682-3.756-3.756l0,0v-22.677c0-2.074,1.682-3.756,3.756-3.756H-2.795 M-2.795-145.701h14.173
				c2.074,0,3.756,1.682,3.756,3.756v22.677c0,2.074-1.682,3.756-3.756,3.756H-5.63c-2.074,0-3.756-1.682-3.756-3.756v-22.677
				c0-2.074,1.682-3.756,3.756-3.756H-2.795 M11.378-184.542c2.074,0,3.756,1.682,3.756,3.756v22.677
				c0,2.074-1.682,3.756-3.756,3.756H-5.63c-2.074,0-3.756-1.682-3.756-3.756v-22.677c0-2.074,1.682-3.756,3.756-3.756H11.378
				 M19.734-186.517c-16.1-1.44-27.984-15.659-26.544-31.759c0,0,0,0,0,0c1.44-16.1,15.659-27.984,31.759-26.544c0,0,0,0,0,0
				c16.1,1.44,27.984,15.659,26.544,31.759c0,0,0,0,0,0C50.054-196.961,35.835-185.077,19.734-186.517
				C19.735-186.517,19.735-186.517,19.734-186.517 M33.14-157.879c-0.004-0.076-0.006-0.153-0.006-0.23v-22.677
				c0-2.074,1.682-3.756,3.756-3.756h17.008c2.074,0,3.756,1.682,3.756,3.756v22.677c0,2.074-1.682,3.756-3.756,3.756H36.89
				C34.904-154.352,33.261-155.897,33.14-157.879 M34.154-144.519c0.71-0.754,1.7-1.182,2.735-1.182h17.008
				c2.074,0,3.756,1.682,3.756,3.756v22.677c0,2.074-1.682,3.756-3.756,3.756H36.89c-2.074,0-3.756-1.682-3.756-3.756v-22.677
				C33.134-142.902,33.499-143.823,34.154-144.519 M36.89-77.817c-2.074,0-3.756-1.682-3.756-3.756l0,0v-22.677
				c0-2.074,1.682-3.756,3.756-3.756h17.008c2.074,0,3.756,1.682,3.756,3.756v22.677c0,2.074-1.682,3.756-3.756,3.756l0,0H36.89
				 M36.89-39.549c-2.074,0-3.756-1.682-3.756-3.756l0,0v-22.677c0-2.074,1.682-3.756,3.756-3.756h17.008
				c2.074,0,3.756,1.682,3.756,3.756v22.677c0,2.074-1.682,3.756-3.756,3.756l0,0H36.89 M53.898-31.471
				c2.074,0,3.756,1.682,3.756,3.756l0,0v22.677c0,2.074-1.682,3.756-3.756,3.756l0,0H36.89c-2.074,0-3.756-1.682-3.756-3.756l0,0
				v-22.677c0-2.074,1.682-3.756,3.756-3.756l0,0H53.898 M72.422-30.289c0.71-0.754,1.7-1.182,2.735-1.182h17.008
				c2.074,0,3.756,1.682,3.756,3.756l0,0v22.677c0,2.074-1.682,3.756-3.756,3.756h0H75.157c-2.074,0-3.756-1.682-3.756-3.756l0,0
				v-22.677C71.402-28.671,71.767-29.592,72.422-30.289 M74.928-69.733c0.076-0.004,0.153-0.006,0.23-0.006h17.008
				c2.074,0,3.756,1.682,3.756,3.756v22.677c0,2.074-1.682,3.756-3.756,3.756h0H75.157c-2.074,0-3.756-1.682-3.756-3.756l0,0
				v-22.677C71.401-67.968,72.946-69.611,74.928-69.733 M75.157-108.006h17.008c2.074,0,3.756,1.682,3.756,3.756l0,0v22.677
				c0,2.074-1.682,3.756-3.756,3.756h0H75.157c-2.074,0-3.756-1.682-3.756-3.756c0,0,0,0,0,0v-22.677
				C71.402-106.325,73.083-108.006,75.157-108.006L75.157-108.006 M75.157-145.701h17.008c2.074,0,3.756,1.682,3.756,3.756
				c0,0,0,0,0,0v22.677c0,2.074-1.682,3.756-3.756,3.756l0,0H75.157c-2.074,0-3.756-1.682-3.756-3.756l0,0v-22.677
				C71.402-144.02,73.083-145.701,75.157-145.701L75.157-145.701 M75.157-184.542h17.008c2.074,0,3.756,1.682,3.756,3.756l0,0
				v22.677c0,2.074-1.682,3.756-3.756,3.756l0,0H75.157c-2.074,0-3.756-1.682-3.756-3.756l0,0v-22.677
				C71.402-182.86,73.083-184.542,75.157-184.542L75.157-184.542 M75.157-223.382h17.008c2.074,0,3.756,1.682,3.756,3.756
				c0,0,0,0,0,0v22.677c0,2.074-1.682,3.756-3.756,3.756h0H75.157c-2.074,0-3.756-1.682-3.756-3.756c0,0,0,0,0,0v-22.677
				C71.402-221.7,73.083-223.382,75.157-223.382C75.157-223.382,75.157-223.382,75.157-223.382 M80.827-261.65h11.339
				c2.074,0,3.756,1.682,3.756,3.756l0,0v22.677c0,2.074-1.682,3.756-3.756,3.756h0H75.157c-2.074,0-3.756-1.682-3.756-3.756v0
				v-22.677c0-2.074,1.682-3.756,3.756-3.756c0,0,0,0,0,0H80.827 M86.7-302.741c-1.846-1.452-2.165-4.125-0.713-5.971
				c0-0.001,0.001-0.001,0.001-0.002c1.452-1.846,4.125-2.165,5.971-0.713c0.001,0,0.001,0.001,0.002,0.001
				c1.846,1.452,2.165,4.125,0.713,5.971c0,0.001-0.001,0.001-0.001,0.002c-1.452,1.846-4.125,2.165-5.971,0.713
				C86.701-302.74,86.701-302.74,86.7-302.741 M-40.556-303.452c-1.452,1.846-4.125,2.165-5.971,0.713
				c-0.001,0-0.001-0.001-0.002-0.001c-1.846-1.452-2.165-4.125-0.713-5.971c0-0.001,0.001-0.001,0.001-0.002
				c1.452-1.846,4.125-2.165,5.971-0.713c0.001,0,0.001,0.001,0.002,0.001c1.846,1.452,2.165,4.125,0.713,5.971
				C-40.555-303.453-40.555-303.453-40.556-303.452 M-41.063-154.353h-5.669c-2.074,0-3.756-1.682-3.756-3.756l0,0v-22.677
				c0-2.074,1.682-3.756,3.756-3.756l0,0h17.008c2.074,0,3.756,1.682,3.756,3.756l0,0v22.677c0,2.074-1.682,3.756-3.756,3.756l0,0
				H-41.063 M-41.063-145.701h11.339c2.074,0,3.756,1.682,3.756,3.756c0,0,0,0,0,0v22.677c0,2.074-1.682,3.756-3.756,3.756l0,0
				h-17.008c-2.074,0-3.756-1.682-3.756-3.756l0,0v-22.677c0-2.074,1.682-3.756,3.756-3.756l0,0H-41.063 M-41.063-77.817h-5.669
				c-2.074,0-3.756-1.682-3.756-3.756c0,0,0,0,0,0v-22.677c0-2.074,1.682-3.756,3.756-3.756l0,0h17.008
				c2.074,0,3.756,1.682,3.756,3.756l0,0v22.677c0,2.074-1.682,3.756-3.756,3.756c0,0,0,0,0,0H-41.063 M-41.063-39.549h-5.669
				c-2.074,0-3.756-1.682-3.756-3.756l0,0v-22.677c0-2.074,1.682-3.756,3.756-3.756h17.008c2.074,0,3.756,1.682,3.756,3.756v22.677
				c0,2.074-1.682,3.756-3.756,3.756c0,0,0,0,0,0H-41.063 M-41.063-31.471h11.339c2.074,0,3.756,1.682,3.756,3.756l0,0v22.677
				c0,2.074-1.682,3.756-3.756,3.756c0,0,0,0,0,0h-17.008c-2.074,0-3.756-1.682-3.756-3.756l0,0v-22.677
				c0-2.074,1.682-3.756,3.756-3.756c0,0,0,0,0,0H-41.063 M-41.267,8.056c1.846,1.452,2.165,4.125,0.713,5.971
				c0,0.001-0.001,0.001-0.001,0.002c-1.452,1.846-4.125,2.165-5.971,0.713c-0.001,0-0.001-0.001-0.002-0.001
				c-1.846-1.452-2.165-4.125-0.713-5.971c0-0.001,0.001-0.001,0.001-0.002c1.452-1.846,4.125-2.165,5.971-0.713
				C-41.268,8.055-41.268,8.055-41.267,8.056 M-8.365-30.289c0.71-0.754,1.7-1.182,2.735-1.182h17.008
				c2.074,0,3.756,1.682,3.756,3.756l0,0v22.677c0,2.074-1.682,3.756-3.756,3.756h0H-5.63c-2.074,0-3.756-1.682-3.756-3.756l0,0
				v-22.677C-9.386-28.671-9.021-29.592-8.365-30.289 M5.709-39.549H-5.63c-2.074,0-3.756-1.682-3.756-3.756l0,0v-22.677
				c0-2.074,1.682-3.756,3.756-3.756h17.008c2.074,0,3.756,1.682,3.756,3.756v22.677c0,2.074-1.682,3.756-3.756,3.756h0H5.709
				 M85.7,9.187c1.221-2.005,3.837-2.641,5.842-1.42c2.005,1.221,2.641,3.837,1.42,5.842c-1.221,2.005-3.837,2.641-5.842,1.42
				C85.115,13.807,84.479,11.192,85.7,9.187 M85.7,34.358h17.804c4.853,0,8.787-3.934,8.787-8.787v-345.827
				c0-4.853-3.934-8.787-8.787-8.787H-58.071c-4.853,0-8.787,3.934-8.787,8.787V25.571c0,4.853,3.934,8.787,8.787,8.787H85.7"/>
		</g>
	</g>
</g>
<g id="Engraving_-_outlines">
	<g>
		<path d="M12.26,213.454v1.149c-0.919,0.21-1.849,0.419-2.769,0.649c-0.649,0.16-1.309,0.2-1.969,0.23
			c0.709,0.06,1.419,0.17,2.119,0.34l2.619,0.629v1.149l-6.667,1.35v-1.35l2.929-0.54c0.549-0.1,1.119-0.17,1.679-0.17
			c-0.54-0.06-1.079-0.14-1.609-0.25l-2.999-0.62v-1.04l3.348-0.679c0.42-0.08,0.84-0.15,1.259-0.19c-0.649,0-1.299-0.06-1.938-0.18
			l-2.669-0.479v-1.379L12.26,213.454z"/>
		<path d="M12.26,211.522H5.593v-1.319h6.667V211.522z"/>
		<path d="M12.26,206.273l-4.018,1.639c0.25-0.05,0.509-0.07,0.759-0.07h3.258v1.319H5.593v-1.25l4.028-1.639
			c-0.3,0.06-0.6,0.1-0.899,0.1H5.593v-1.339h6.667V206.273z"/>
		<path d="M8.552,199.644c0.17-0.01,0.34-0.01,0.51-0.01c0.47,0,0.95,0.02,1.409,0.12c1.029,0.22,1.899,0.89,1.899,2.019
			c0,1.799-1.939,2.369-3.418,2.369c-1.529,0-3.458-0.5-3.458-2.369c0-1.02,0.64-1.679,1.579-1.959l0.5,1.279
			c-0.39,0.06-0.919,0.17-0.919,0.669c0,0.899,1.649,0.97,2.279,0.97c0.66,0,2.239-0.03,2.239-0.979c0-0.72-0.899-0.8-1.439-0.81
			v0.839H8.552V199.644z"/>
		<path d="M14.188,198.452v1.119l-9.215-3.698v-1.089L14.188,198.452z"/>
		<path d="M12.26,194.032H5.593v-2.649h1.239v1.33h1.439v-1.169h1.259v1.169h1.499v-1.35h1.229V194.032z"/>
		<path d="M12.26,187.593l-4.018,1.639c0.25-0.05,0.509-0.07,0.759-0.07h3.258v1.319H5.593v-1.25l4.028-1.639
			c-0.3,0.06-0.6,0.1-0.899,0.1H5.593v-1.339h6.667V187.593z"/>
		<path d="M8.552,180.964c0.17-0.01,0.34-0.01,0.51-0.01c0.47,0,0.95,0.02,1.409,0.12c1.029,0.22,1.899,0.89,1.899,2.019
			c0,1.799-1.939,2.369-3.418,2.369c-1.529,0-3.458-0.5-3.458-2.369c0-1.02,0.64-1.679,1.579-1.959l0.5,1.279
			c-0.39,0.06-0.919,0.17-0.919,0.669c0,0.899,1.649,0.97,2.279,0.97c0.66,0,2.239-0.03,2.239-0.979c0-0.72-0.899-0.8-1.439-0.81
			v0.839H8.552V180.964z"/>
		<path d="M12.26,175.093l-1.12,0.25v1.329l1.12,0.24v1.319l-6.667-1.56v-1.379l6.667-1.599V175.093z M10.111,175.543
			c-0.64,0.14-1.269,0.28-1.919,0.38c-0.29,0.04-0.589,0.08-0.879,0.109c0.939,0.061,1.869,0.25,2.798,0.44V175.543z"/>
		<path d="M12.26,170.254l-4.018,1.639c0.25-0.05,0.509-0.069,0.759-0.069h3.258v1.319H5.593v-1.25l4.028-1.639
			c-0.3,0.06-0.6,0.1-0.899,0.1H5.593v-1.339h6.667V170.254z"/>
		<path d="M6.813,166.143h5.447v1.319H6.813v1.029h-1.22v-3.378h1.22V166.143z"/>
		<path d="M12.26,164.592H5.593v-1.319h6.667V164.592z"/>
		<path d="M10.35,162.252H9.271v-1.679h1.079V162.252z"/>
		<path d="M12.26,159.553H5.593v-1.319h6.667V159.553z"/>
		<path d="M12.12,153.954c0.16,0.29,0.21,0.55,0.21,0.909c0,0.64-0.15,1.13-0.6,1.579c-0.47,0.47-1.289,0.9-2.698,0.9
			c-0.67,0-1.949-0.08-2.839-0.96c-0.549-0.55-0.669-1.149-0.669-1.6c0-0.3,0.07-0.569,0.19-0.829h1.359
			c-0.23,0.25-0.29,0.52-0.29,0.729c0,0.35,0.15,0.58,0.3,0.729c0.36,0.36,1.049,0.55,1.909,0.55c0.17,0,1.229,0,1.749-0.47
			c0.17-0.15,0.32-0.39,0.32-0.75c0-0.22-0.07-0.52-0.32-0.789H12.12z"/>
		<path d="M12.26,153.103H5.593v-2.648h1.239v1.329h1.439v-1.17h1.259v1.17h1.499v-1.35h1.229V153.103z"/>
	</g>
	<g>
		<path d="M6.813,123.054h5.447v1.319H6.813v1.029h-1.22v-3.378h1.22V123.054z"/>
		<path d="M12.26,118.993l-1.12,0.25v1.329l1.12,0.24v1.319l-6.667-1.56v-1.379l6.667-1.599V118.993z M10.111,119.443
			c-0.64,0.14-1.269,0.28-1.919,0.38c-0.29,0.04-0.589,0.08-0.879,0.109c0.939,0.061,1.869,0.25,2.798,0.44V119.443z"/>
		<path d="M12.26,117.043H5.593v-1.319h6.667V117.043z"/>
		<path d="M12.26,114.683H5.593v-1.319h5.417v-1.379h1.25V114.683z"/>
		<path d="M5.593,107.953c0-0.489,0.02-0.899,0.23-1.35c0.54-1.188,1.949-1.528,3.138-1.528c1.799,0,3.298,0.679,3.298,2.698v1.289
			H5.593V107.953z M11.04,107.703c0.01-1.049-1.259-1.31-2.089-1.31c-0.66,0-1.519,0.15-1.959,0.68c-0.18,0.21-0.22,0.4-0.23,0.67
			h4.278V107.703z"/>
		<path d="M12.26,104.183H5.593v-2.648h1.239v1.329h1.439v-1.169h1.259v1.169h1.499v-1.35h1.229V104.183z"/>
		<path d="M12.26,100.633H5.593v-1.319h6.667V100.633z"/>
		<path d="M12.12,95.035c0.16,0.289,0.21,0.55,0.21,0.909c0,0.64-0.15,1.129-0.6,1.579c-0.47,0.47-1.289,0.899-2.698,0.899
			c-0.67,0-1.949-0.08-2.839-0.959c-0.549-0.55-0.669-1.149-0.669-1.6c0-0.3,0.07-0.569,0.19-0.829h1.359
			c-0.23,0.249-0.29,0.52-0.29,0.729c0,0.35,0.15,0.579,0.3,0.729c0.36,0.359,1.049,0.55,1.909,0.55c0.17,0,1.229,0,1.749-0.47
			c0.17-0.15,0.32-0.39,0.32-0.75c0-0.22-0.07-0.52-0.32-0.789H12.12z"/>
		<path d="M12.26,94.184H5.593v-2.649h1.239v1.33h1.439v-1.17h1.259v1.17h1.499v-1.35h1.229V94.184z"/>
	</g>
	<g>
		<path d="M12.26,55.204v1.149c-0.919,0.21-1.849,0.419-2.769,0.649c-0.649,0.16-1.309,0.2-1.969,0.229
			c0.709,0.061,1.419,0.17,2.119,0.34l2.619,0.63v1.149l-6.667,1.35v-1.35l2.929-0.54c0.549-0.1,1.119-0.17,1.679-0.17
			c-0.54-0.06-1.079-0.14-1.609-0.25l-2.999-0.619v-1.04l3.348-0.679c0.42-0.08,0.84-0.15,1.259-0.19
			c-0.649,0-1.299-0.06-1.938-0.18l-2.669-0.479v-1.38L12.26,55.204z"/>
		<path d="M12.26,53.272H5.593v-1.319h6.667V53.272z"/>
		<path d="M12.26,48.023l-4.018,1.64c0.25-0.05,0.509-0.07,0.759-0.07h3.258v1.319H5.593v-1.249l4.028-1.64
			c-0.3,0.061-0.6,0.101-0.899,0.101H5.593v-1.34h6.667V48.023z"/>
		<path d="M8.552,41.394c0.17-0.01,0.34-0.01,0.51-0.01c0.47,0,0.95,0.02,1.409,0.12c1.029,0.22,1.899,0.89,1.899,2.019
			c0,1.799-1.939,2.369-3.418,2.369c-1.529,0-3.458-0.5-3.458-2.369c0-1.02,0.64-1.679,1.579-1.959l0.5,1.279
			c-0.39,0.06-0.919,0.17-0.919,0.67c0,0.899,1.649,0.97,2.279,0.97c0.66,0,2.239-0.03,2.239-0.979c0-0.72-0.899-0.8-1.439-0.81
			v0.839H8.552V41.394z"/>
	</g>
	<g>
		<path d="M53.376,216.412h-6.667v-2.649h1.239v1.33h1.439v-1.169h1.259v1.169h1.499v-1.35h1.229V216.412z"/>
		<path d="M53.376,209.973l-4.018,1.639c0.25-0.05,0.509-0.07,0.759-0.07h3.258v1.319h-6.667v-1.25l4.028-1.639
			c-0.3,0.06-0.6,0.1-0.899,0.1h-3.128v-1.339h6.667V209.973z"/>
		<path d="M49.668,203.344c0.17-0.01,0.34-0.01,0.51-0.01c0.47,0,0.95,0.02,1.409,0.12c1.029,0.22,1.899,0.89,1.899,2.019
			c0,1.799-1.939,2.369-3.418,2.369c-1.529,0-3.458-0.5-3.458-2.369c0-1.02,0.64-1.679,1.579-1.959l0.5,1.279
			c-0.39,0.06-0.919,0.17-0.919,0.669c0,0.899,1.649,0.97,2.279,0.97c0.66,0,2.239-0.03,2.239-0.979c0-0.72-0.899-0.8-1.439-0.81
			v0.839h-1.179V203.344z"/>
		<path d="M52.546,196.194c0.55,0.39,0.939,1.05,0.939,1.739s-0.39,1.339-0.939,1.739c-0.7,0.509-1.659,0.6-2.499,0.6
			c-0.859,0-1.789-0.09-2.509-0.6c-0.56-0.39-0.929-1.06-0.929-1.739c0-0.689,0.379-1.339,0.929-1.739
			c0.7-0.509,1.669-0.6,2.509-0.6C50.907,195.594,51.827,195.685,52.546,196.194z M47.819,197.933c0,0.87,1.589,0.939,2.199,0.939
			c0.609,0,2.199-0.07,2.199-0.939s-1.589-0.939-2.199-0.939C49.408,196.994,47.819,197.064,47.819,197.933z"/>
		<path d="M53.376,191.814l-4.018,1.639c0.25-0.05,0.509-0.07,0.759-0.07h3.258v1.319h-6.667v-1.25l4.028-1.639
			c-0.3,0.06-0.6,0.1-0.899,0.1h-3.128v-1.339h6.667V191.814z"/>
		<path d="M53.376,189.532h-6.667v-1.319h5.417v-1.379h1.25V189.532z"/>
		<path d="M50.527,184.193h2.849v1.319h-2.849l-3.818,1.599v-1.449l1.449-0.49c0.27-0.09,0.69-0.22,0.99-0.3
			c-0.51-0.12-0.69-0.19-1-0.29l-1.439-0.459v-1.479L50.527,184.193z"/>
		<path d="M53.376,177.144l-1.12,0.25v1.329l1.12,0.24v1.319l-6.667-1.56v-1.379l6.667-1.6V177.144z M51.227,177.593
			c-0.64,0.141-1.269,0.28-1.919,0.38c-0.29,0.04-0.589,0.08-0.879,0.11c0.939,0.06,1.869,0.25,2.798,0.439V177.593z"/>
		<path d="M53.376,172.304l-4.018,1.64c0.25-0.05,0.509-0.07,0.759-0.07h3.258v1.319h-6.667v-1.249l4.028-1.64
			c-0.3,0.061-0.6,0.101-0.899,0.101h-3.128v-1.34h6.667V172.304z"/>
		<path d="M47.929,168.193h5.447v1.319h-5.447v1.029h-1.22v-3.378h1.22V168.193z"/>
		<path d="M53.376,166.643h-6.667v-1.319h6.667V166.643z"/>
		<path d="M51.467,164.303h-1.079v-1.68h1.079V164.303z"/>
		<path d="M53.376,161.603h-6.667v-1.319h6.667V161.603z"/>
		<path d="M53.236,156.004c0.16,0.29,0.21,0.55,0.21,0.91c0,0.64-0.15,1.129-0.6,1.579c-0.47,0.47-1.289,0.899-2.698,0.899
			c-0.67,0-1.949-0.08-2.839-0.959c-0.549-0.55-0.669-1.149-0.669-1.6c0-0.3,0.07-0.57,0.19-0.83h1.359
			c-0.23,0.25-0.29,0.521-0.29,0.729c0,0.351,0.15,0.58,0.3,0.73c0.36,0.359,1.049,0.55,1.909,0.55c0.17,0,1.229,0,1.749-0.47
			c0.17-0.15,0.32-0.39,0.32-0.75c0-0.22-0.07-0.52-0.32-0.79H53.236z"/>
		<path d="M53.376,155.152h-6.667v-2.648h1.239v1.329h1.439v-1.17h1.259v1.17h1.499v-1.35h1.229V155.152z"/>
	</g>
	<g>
		<path d="M46.709,138.048c0-0.42,0.01-0.75,0.22-1.119c0.35-0.62,1.069-0.91,1.759-0.91c1.399,0,2.049,0.99,1.949,2.31h2.738v1.319
			h-6.667V138.048z M49.528,138.248c0-0.6-0.21-0.92-0.85-0.92c-0.53,0-0.9,0.18-0.9,0.77v0.23h1.75V138.248z"/>
		<path d="M53.376,135.297h-6.667v-1.319h6.667V135.297z"/>
		<path d="M47.929,131.108h5.447v1.319h-5.447v1.029h-1.22v-3.378h1.22V131.108z"/>
		<path d="M52.546,125.629c0.55,0.391,0.939,1.05,0.939,1.739c0,0.689-0.39,1.34-0.939,1.739c-0.7,0.51-1.659,0.6-2.499,0.6
			c-0.859,0-1.789-0.09-2.509-0.6c-0.56-0.39-0.929-1.06-0.929-1.739c0-0.689,0.379-1.339,0.929-1.739c0.7-0.51,1.669-0.6,2.509-0.6
			C50.907,125.029,51.827,125.119,52.546,125.629z M47.819,127.368c0,0.87,1.589,0.939,2.199,0.939c0.609,0,2.199-0.069,2.199-0.939
			c0-0.869-1.589-0.939-2.199-0.939C49.408,126.429,47.819,126.499,47.819,127.368z"/>
		<path d="M47.929,122.309h5.447v1.319h-5.447v1.029h-1.22v-3.378h1.22V122.309z"/>
		<path d="M55.305,120.458v1.119l-9.215-3.698v-1.089L55.305,120.458z"/>
		<path d="M48.219,113.289c-0.23,0.27-0.43,0.579-0.43,0.949c0,0.39,0.26,0.659,0.649,0.659c1.149,0,1.129-1.999,2.989-1.999
			c1.149,0,2.059,0.69,2.059,1.899c0,0.41-0.11,0.81-0.34,1.149h-1.259c0.2-0.3,0.36-0.609,0.36-0.979c0-0.45-0.28-0.779-0.74-0.779
			c-0.12,0-0.229,0.02-0.34,0.069c-0.25,0.12-0.47,0.49-0.62,0.71c-0.52,0.75-1,1.229-1.969,1.229c-1.049,0-1.969-0.609-1.969-1.739
			c0-0.45,0.1-0.779,0.32-1.169H48.219z"/>
		<path d="M47.929,110.299h5.447v1.319h-5.447v1.029h-1.22v-3.378h1.22V110.299z"/>
		<path d="M53.376,106.238l-1.12,0.25v1.329l1.12,0.24v1.319l-6.667-1.56v-1.379l6.667-1.599V106.238z M51.227,106.689
			c-0.64,0.14-1.269,0.28-1.919,0.38c-0.29,0.04-0.589,0.08-0.879,0.109c0.939,0.061,1.869,0.25,2.798,0.44V106.689z"/>
		<path d="M47.929,102.599h5.447v1.319h-5.447v1.029h-1.22v-3.378h1.22V102.599z"/>
		<path d="M53.376,101.048h-6.667v-1.319h6.667V101.048z"/>
		<path d="M53.236,95.449c0.16,0.29,0.21,0.55,0.21,0.909c0,0.64-0.15,1.13-0.6,1.579c-0.47,0.47-1.289,0.9-2.698,0.9
			c-0.67,0-1.949-0.08-2.839-0.96c-0.549-0.55-0.669-1.149-0.669-1.599c0-0.3,0.07-0.57,0.19-0.83h1.359
			c-0.23,0.25-0.29,0.52-0.29,0.729c0,0.35,0.15,0.58,0.3,0.729c0.36,0.36,1.049,0.55,1.909,0.55c0.17,0,1.229,0,1.749-0.47
			c0.17-0.149,0.32-0.39,0.32-0.749c0-0.221-0.07-0.521-0.32-0.79H53.236z"/>
		<path d="M53.376,89.619h-2.948v1.329h2.948v1.319h-6.667v-1.319h2.469v-1.329h-2.469V88.3h6.667V89.619z"/>
		<path d="M53.376,87.258h-6.667v-2.648h1.239v1.329h1.439V84.77h1.259v1.169h1.499v-1.35h1.229V87.258z"/>
		<path d="M53.376,81.06l-1.12,0.25v1.329l1.12,0.24v1.319l-6.667-1.56V81.26l6.667-1.6V81.06z M51.227,81.509
			c-0.64,0.141-1.269,0.28-1.919,0.38c-0.29,0.04-0.589,0.08-0.879,0.11c0.939,0.06,1.869,0.25,2.798,0.439V81.509z"/>
		<path d="M47.929,77.419h5.447v1.319h-5.447v1.029h-1.22V76.39h1.22V77.419z"/>
	</g>
	<g>
		<path d="M95.882,194.074h-6.667v-2.649h1.239v1.33h1.439v-1.169h1.26v1.169h1.499v-1.35h1.229V194.074z"/>
		<path d="M95.882,188.146c-0.67,0.27-1.339,0.62-2.06,0.729c0.71,0.15,1.38,0.43,2.06,0.69v1.479l-3.438-1.409l-3.228,1.409v-1.479
			c0.56-0.23,1.37-0.63,1.958-0.69c-0.689-0.14-1.319-0.459-1.958-0.729v-1.419l3.228,1.419l3.438-1.529V188.146z"/>
		<path d="M90.435,184.265h5.447v1.319h-5.447v1.029h-1.22v-3.378h1.22V184.265z"/>
		<path d="M95.882,182.714h-6.667v-2.649h1.239v1.33h1.439v-1.169h1.26v1.169h1.499v-1.35h1.229V182.714z"/>
		<path d="M95.882,176.676l-3.068,1.169h3.068v1.319h-6.667v-1.429c0-0.49,0.04-1.03,0.32-1.449c0.35-0.53,1-0.79,1.619-0.79
			c0.76,0,1.299,0.3,1.699,0.949l3.028-1.159V176.676z M92.084,177.845c0.01-0.07,0.01-0.149,0.01-0.22c0-0.569-0.39-0.85-0.93-0.85
			c-0.54,0-0.909,0.24-0.909,0.819v0.25H92.084z"/>
		<path d="M95.882,174.435h-6.667v-1.319h6.667V174.435z"/>
		<path d="M95.053,168.147c0.549,0.39,0.939,1.05,0.939,1.739s-0.391,1.339-0.939,1.739c-0.7,0.509-1.66,0.6-2.499,0.6
			c-0.859,0-1.789-0.091-2.509-0.6c-0.56-0.391-0.929-1.06-0.929-1.739c0-0.689,0.379-1.34,0.929-1.739
			c0.7-0.51,1.669-0.6,2.509-0.6C93.413,167.547,94.333,167.637,95.053,168.147z M90.325,169.886c0,0.869,1.589,0.939,2.199,0.939
			s2.199-0.07,2.199-0.939c0-0.87-1.59-0.939-2.199-0.939S90.325,169.016,90.325,169.886z"/>
		<path d="M95.882,164.166l-3.068,1.169h3.068v1.319h-6.667v-1.429c0-0.49,0.04-1.03,0.32-1.449c0.35-0.53,1-0.79,1.619-0.79
			c0.76,0,1.299,0.3,1.699,0.949l3.028-1.159V164.166z M92.084,165.335c0.01-0.07,0.01-0.149,0.01-0.22c0-0.569-0.39-0.85-0.93-0.85
			c-0.54,0-0.909,0.24-0.909,0.819v0.25H92.084z"/>
		<path d="M95.882,159.595h-6.667v-1.319h5.417v-1.379h1.249V159.595z"/>
		<path d="M95.882,156.305h-6.667v-1.319h6.667V156.305z"/>
		<path d="M92.174,149.597c0.17-0.01,0.34-0.01,0.51-0.01c0.47,0,0.949,0.02,1.409,0.119c1.029,0.221,1.899,0.89,1.899,2.02
			c0,1.799-1.939,2.368-3.419,2.368c-1.529,0-3.458-0.499-3.458-2.368c0-1.02,0.64-1.68,1.579-1.959l0.5,1.279
			c-0.39,0.06-0.919,0.17-0.919,0.67c0,0.899,1.649,0.969,2.279,0.969c0.659,0,2.238-0.029,2.238-0.979
			c0-0.72-0.899-0.799-1.439-0.81v0.84h-1.179V149.597z"/>
		<path d="M95.882,146.057h-2.948v1.329h2.948v1.319h-6.667v-1.319h2.468v-1.329h-2.468v-1.319h6.667V146.057z"/>
		<path d="M90.435,141.865h5.447v1.319h-5.447v1.029h-1.22v-3.378h1.22V141.865z"/>
		<path d="M90.725,137.406c-0.23,0.271-0.43,0.58-0.43,0.95c0,0.39,0.26,0.659,0.649,0.659c1.149,0,1.129-1.999,2.988-1.999
			c1.149,0,2.06,0.689,2.06,1.899c0,0.409-0.11,0.81-0.34,1.149h-1.26c0.2-0.3,0.36-0.61,0.36-0.979c0-0.45-0.28-0.78-0.74-0.78
			c-0.12,0-0.229,0.021-0.34,0.07c-0.25,0.12-0.47,0.49-0.62,0.71c-0.52,0.749-0.999,1.229-1.969,1.229
			c-1.049,0-1.968-0.61-1.968-1.739c0-0.45,0.1-0.779,0.32-1.17H90.725z"/>
	</g>
	<g>
		<path d="M89.216,88.836c0-0.42,0.01-0.749,0.22-1.119c0.35-0.619,1.069-0.909,1.759-0.909c1.399,0,2.049,0.989,1.949,2.309h2.738
			v1.319h-6.667V88.836z M92.035,89.036c0-0.6-0.21-0.92-0.85-0.92c-0.53,0-0.899,0.181-0.899,0.77v0.23h1.749V89.036z"/>
		<path d="M95.882,83.688l-1.119,0.25v1.329l1.119,0.239v1.319l-6.667-1.559v-1.38l6.667-1.599V83.688z M93.734,84.137
			c-0.641,0.141-1.27,0.28-1.92,0.38c-0.289,0.04-0.589,0.08-0.879,0.11c0.939,0.06,1.869,0.25,2.799,0.439V84.137z"/>
		<path d="M90.725,79.087c-0.23,0.271-0.43,0.58-0.43,0.95c0,0.39,0.26,0.659,0.649,0.659c1.149,0,1.129-1.999,2.988-1.999
			c1.149,0,2.06,0.689,2.06,1.899c0,0.409-0.11,0.81-0.34,1.149h-1.26c0.2-0.3,0.36-0.61,0.36-0.979c0-0.45-0.28-0.78-0.74-0.78
			c-0.119,0-0.229,0.021-0.34,0.07c-0.25,0.12-0.47,0.49-0.619,0.71c-0.52,0.749-1,1.229-1.969,1.229
			c-1.05,0-1.969-0.61-1.969-1.739c0-0.45,0.1-0.78,0.32-1.17H90.725z"/>
		<path d="M90.725,75.387c-0.23,0.271-0.43,0.58-0.43,0.95c0,0.39,0.26,0.659,0.649,0.659c1.149,0,1.129-1.999,2.988-1.999
			c1.149,0,2.06,0.689,2.06,1.899c0,0.409-0.11,0.81-0.34,1.149h-1.26c0.2-0.3,0.36-0.61,0.36-0.979c0-0.45-0.28-0.78-0.74-0.78
			c-0.119,0-0.229,0.021-0.34,0.07c-0.25,0.12-0.47,0.49-0.619,0.71c-0.52,0.749-1,1.229-1.969,1.229
			c-1.05,0-1.969-0.61-1.969-1.739c0-0.45,0.1-0.779,0.32-1.17H90.725z"/>
		<path d="M95.882,71.896h-6.667v-1.319h5.417v-1.379h1.25V71.896z"/>
		<path d="M95.882,68.606h-6.667v-1.319h6.667V68.606z"/>
		<path d="M92.174,61.899c0.17-0.01,0.34-0.01,0.51-0.01c0.47,0,0.95,0.02,1.409,0.119c1.029,0.221,1.899,0.89,1.899,2.02
			c0,1.799-1.939,2.368-3.419,2.368c-1.529,0-3.458-0.499-3.458-2.368c0-1.02,0.64-1.68,1.579-1.959l0.5,1.279
			c-0.39,0.06-0.919,0.17-0.919,0.67c0,0.899,1.649,0.969,2.279,0.969c0.66,0,2.238-0.029,2.238-0.979
			c0-0.72-0.898-0.799-1.439-0.81v0.84h-1.179V61.899z"/>
		<path d="M95.882,58.358h-2.948v1.329h2.948v1.319h-6.667v-1.319h2.469v-1.329h-2.469v-1.319h6.667V58.358z"/>
		<path d="M90.435,54.167h5.447v1.319h-5.447v1.029h-1.22v-3.378h1.22V54.167z"/>
		<path d="M90.725,49.707c-0.23,0.271-0.43,0.58-0.43,0.95c0,0.39,0.26,0.659,0.649,0.659c1.149,0,1.129-1.999,2.988-1.999
			c1.149,0,2.06,0.689,2.06,1.899c0,0.409-0.11,0.81-0.34,1.149h-1.26c0.2-0.3,0.36-0.61,0.36-0.979c0-0.45-0.28-0.78-0.74-0.78
			c-0.119,0-0.229,0.021-0.34,0.07c-0.25,0.12-0.47,0.49-0.619,0.71c-0.52,0.749-1,1.229-1.969,1.229
			c-1.05,0-1.969-0.61-1.969-1.739c0-0.45,0.1-0.779,0.32-1.17H90.725z"/>
	</g>
	<g>
		<path d="M127.484,90.621c0-0.42,0.01-0.749,0.22-1.119c0.35-0.619,1.069-0.909,1.759-0.909c1.399,0,2.049,0.989,1.949,2.309h2.738
			v1.319h-6.666V90.621z M130.302,90.821c0-0.6-0.21-0.92-0.85-0.92c-0.53,0-0.899,0.181-0.899,0.77v0.23h1.749V90.821z"/>
		<path d="M132.451,83.923c0.38,0,0.68,0.021,1.02,0.22c0.609,0.36,0.79,1.109,0.79,1.77c0,1.089-0.53,1.959-1.709,1.959h-5.067
			v-1.319h4.427c0.5,0,1.149,0.02,1.149-0.66c0-0.669-0.589-0.649-1.089-0.649h-4.487v-1.319H132.451z"/>
		<path d="M134.15,82.881h-6.666v-1.319h5.417v-1.379h1.249V82.881z"/>
		<path d="M128.993,77.151c-0.229,0.271-0.43,0.58-0.43,0.95c0,0.39,0.26,0.659,0.649,0.659c1.149,0,1.13-1.999,2.988-1.999
			c1.149,0,2.06,0.689,2.06,1.899c0,0.409-0.11,0.81-0.34,1.149h-1.26c0.2-0.3,0.36-0.61,0.36-0.979c0-0.45-0.28-0.78-0.74-0.78
			c-0.12,0-0.229,0.021-0.34,0.07c-0.25,0.12-0.47,0.49-0.619,0.71c-0.521,0.749-1,1.229-1.97,1.229
			c-1.049,0-1.969-0.61-1.969-1.739c0-0.45,0.101-0.779,0.32-1.17H128.993z"/>
		<path d="M134.15,75.991h-6.666v-2.648h1.239v1.329h1.438v-1.17h1.26v1.17h1.499v-1.35h1.229V75.991z"/>
		<path d="M134.15,70.111h-6.666v-1.319h5.417v-1.379h1.249V70.111z"/>
		<path d="M134.15,66.821h-6.666v-1.319h6.666V66.821z"/>
		<path d="M130.442,60.113c0.17-0.01,0.34-0.01,0.51-0.01c0.47,0,0.949,0.02,1.409,0.119c1.029,0.221,1.899,0.89,1.899,2.02
			c0,1.799-1.939,2.368-3.419,2.368c-1.528,0-3.458-0.499-3.458-2.368c0-1.02,0.64-1.68,1.579-1.959l0.5,1.279
			c-0.39,0.06-0.919,0.17-0.919,0.67c0,0.899,1.648,0.969,2.278,0.969c0.659,0,2.238-0.029,2.238-0.979
			c0-0.72-0.899-0.799-1.438-0.81v0.84h-1.18V60.113z"/>
		<path d="M134.15,56.573h-2.948v1.329h2.948v1.319h-6.666v-1.319h2.469v-1.329h-2.469v-1.319h6.666V56.573z"/>
		<path d="M128.703,52.382h5.447v1.319h-5.447v1.029h-1.219v-3.378h1.219V52.382z"/>
		<path d="M128.993,47.923c-0.229,0.271-0.43,0.58-0.43,0.95c0,0.39,0.26,0.659,0.649,0.659c1.149,0,1.13-1.999,2.988-1.999
			c1.149,0,2.06,0.689,2.06,1.899c0,0.409-0.11,0.81-0.34,1.149h-1.26c0.2-0.3,0.36-0.61,0.36-0.979c0-0.45-0.28-0.78-0.74-0.78
			c-0.12,0-0.229,0.021-0.34,0.07c-0.25,0.12-0.47,0.49-0.619,0.71c-0.521,0.749-1,1.229-1.97,1.229
			c-1.049,0-1.969-0.61-1.969-1.739c0-0.45,0.101-0.779,0.32-1.17H128.993z"/>
	</g>
	<g>
		<path d="M49.153,258.405c0-0.42,0.01-0.75,0.22-1.12c0.35-0.62,1.069-0.91,1.759-0.91c1.399,0,2.049,0.99,1.949,2.309h2.738v1.319
			h-6.667V258.405z M51.972,258.605c0-0.6-0.21-0.919-0.85-0.919c-0.53,0-0.9,0.18-0.9,0.77v0.23h1.75V258.605z"/>
		<path d="M55.819,253.255l-1.12,0.25v1.329l1.12,0.24v1.319l-6.667-1.56v-1.379l6.667-1.599V253.255z M53.67,253.705
			c-0.64,0.14-1.269,0.28-1.919,0.379c-0.29,0.04-0.589,0.08-0.879,0.11c0.939,0.06,1.869,0.25,2.798,0.44V253.705z"/>
		<path d="M55.819,248.415l-4.018,1.639c0.25-0.05,0.509-0.07,0.759-0.07h3.258v1.319h-6.667v-1.25l4.028-1.639
			c-0.3,0.06-0.6,0.1-0.899,0.1h-3.128v-1.339h6.667V248.415z"/>
		<path d="M55.819,246.134h-6.667v-2.649h1.239v1.33h1.439v-1.169h1.259v1.169h1.499v-1.35h1.229V246.134z"/>
		<path d="M55.819,242.584h-6.667v-1.319h5.417v-1.379h1.25V242.584z"/>
	</g>
</g>
<g id="Engraving" class="st1">
	<text transform="matrix(0 -1 1 0 12.2599 218.9808)" class="st2 st3 st4">WING/ENG ANTI-ICE</text>
	<text transform="matrix(0 -1 1 0 12.2596 125.4027)" class="st2"><tspan x="0" y="0" class="st3 st4">T</tspan><tspan x="3.24" y="0" class="st3 st4">AIL DEICE</tspan></text>
	<text transform="matrix(0 -1 1 0 12.2598 60.7308)" class="st2 st3 st4">WING</text>
	<text transform="matrix(0 -1 1 0 53.3758 216.9315)" class="st2"><tspan x="0" y="0" class="st3 st4">ENG ON</tspan><tspan x="26.879" y="0" class="st3 st4">L</tspan><tspan x="29.82" y="0" class="st3 st4">Y ANTI-ICE</tspan></text>
	<text transform="matrix(0 -1 1 0 53.376 140.1669)" class="st2"><tspan x="0" y="0" class="st3 st4">PITOT/S</tspan><tspan x="27.52" y="0" class="st3 st4">TA</tspan><tspan x="35.22" y="0" class="st3 st4">TIC HE</tspan><tspan x="55.939" y="0" class="st3 st4">A</tspan><tspan x="60.399" y="0" class="st3 st4">T</tspan></text>
	<text transform="matrix(0 -1 1 0 95.8821 194.5936)" class="st2"><tspan x="0" y="0" class="st3 st4">EXTERIOR LIGH</tspan><tspan x="50.379" y="0" class="st3 st4">T</tspan><tspan x="53.918" y="0" class="st3 st4">S</tspan></text>
	<text transform="matrix(0 -1 1 0 95.8822 90.9554)" class="st2"><tspan x="0" y="0" class="st3 st4">P</tspan><tspan x="4.1" y="0" class="st3 st4">A</tspan><tspan x="8.6" y="0" class="st3 st4">S</tspan><tspan x="12.3" y="0" class="st3 st4">S LIGH</tspan><tspan x="34.439" y="0" class="st3 st4">T</tspan><tspan x="37.979" y="0" class="st3 st4">S</tspan></text>
	<text transform="matrix(0 -1 1 0 134.1497 92.7396)" class="st2"><tspan x="0" y="0" class="st3 st4">PU</tspan><tspan x="9.34" y="0" class="st3 st4">L</tspan><tspan x="12.32" y="0" class="st3 st4">SE LIGH</tspan><tspan x="38.01" y="0" class="st3 st4">T</tspan><tspan x="41.549" y="0" class="st3 st4">S</tspan></text>
	<text transform="matrix(0 -1 1 0 55.8193 260.5238)" class="st2"><tspan x="0" y="0" class="st3 st4">P</tspan><tspan x="4.1" y="0" class="st3 st4">ANEL</tspan></text>
</g>
</svg>
