<?xml version="1.0" encoding="utf-8"?>
<!-- Generator: Adobe Illustrator 27.2.0, SVG Export Plug-In . SVG Version: 6.00 Build 0)  -->
<svg version="1.1" xmlns="http://www.w3.org/2000/svg" xmlns:xlink="http://www.w3.org/1999/xlink" x="0px" y="0px"
	 width="328.819px" height="257.953px" viewBox="0 0 328.819 257.953" style="enable-background:new 0 0 328.819 257.953;"
	 xml:space="preserve">
<style type="text/css">
	.st0{fill:none;stroke:#FF0000;stroke-width:0.2835;stroke-miterlimit:11.3386;}
	.st1{display:none;}
	.st2{display:inline;fill:none;stroke:#000000;stroke-miterlimit:10;}
	.st3{display:inline;fill:none;}
	.st4{display:inline;}
	.st5{font-family:'FuturaPT-Bold';}
	.st6{font-size:12px;}
	.st7{font-family:'FuturaPTCond-Bold';}
	.st8{font-size:10px;}
</style>
<g id="Jig" xmlns:inkscape="http://www.inkscape.org/namespaces/inkscape">
	<g id="Template_1" inkscape:groupmode="layer" inkscape:label="Template">
		<path class="st0" d="M37.134,55.324v2.22h29.764V37.134H37.134V55.324 M37.134,97.843v2.22h29.764V79.654H37.134V97.843
			 M37.134,140.363v2.22h29.764v-20.409H37.134V140.363 M37.134,182.883v2.22h29.764v-20.409H37.134V182.883 M66.898,209.432v-2.22
			H37.134v20.409h29.764V209.432 M96.012,207.213h-2.186v20.409h29.764v-20.409H96.012 M96.012,164.693h-2.186v20.409h29.764
			v-20.409H96.012 M96.046,122.173h-2.22v20.409h29.764v-20.409H96.046 M96.012,79.654h-2.186v20.409h29.764V79.654H96.012
			 M121.405,57.543h2.186V37.134H93.827v20.409H121.405 M150.52,55.324v2.22h29.764V37.134H150.52V55.324 M150.52,97.843v2.22
			h29.764V79.654H150.52V97.843 M150.52,140.363v2.22h29.764v-20.409H150.52V140.363 M150.52,182.883v2.22h29.764v-20.409H150.52
			V182.883 M180.283,209.432v-2.22H150.52v20.409h29.764V209.432 M209.398,207.213h-2.186v20.409h29.764v-20.409H209.398
			 M209.398,164.693h-2.186v20.409h29.764v-20.409H209.398 M209.432,122.173h-2.22v20.409h29.764v-20.409H209.432 M209.398,79.654
			h-2.186v20.409h29.764V79.654H209.398 M234.791,57.543h2.186V37.134h-29.764v20.409H234.791 M263.906,55.324v2.22h29.764V37.134
			h-29.764V55.324 M263.906,97.843v2.22h29.764V79.654h-29.764V97.843 M263.906,140.363v2.22h29.764v-20.409h-29.764V140.363
			 M263.906,182.883v2.22h29.764v-20.409h-29.764V182.883 M267.259,207.213h-2.786h-0.567v20.409h29.764v-20.409H267.259
			 M264.472,249.732H8.504c-0.157,0-0.283-0.127-0.283-0.283V8.504c0-0.157,0.127-0.283,0.283-0.283h311.811
			c0.157,0,0.283,0.127,0.283,0.283v240.945c0,0.157-0.127,0.283-0.283,0.283H264.472"/>
	</g>
</g>
<g id="Letters_-_template" class="st1">
	<rect x="38.126" y="36.283" class="st2" width="27.78" height="22.11"/>
	<rect x="264.898" y="36.283" class="st2" width="27.78" height="22.11"/>
	<rect x="208.205" y="36.283" class="st2" width="27.78" height="22.11"/>
	<rect x="94.819" y="36.283" class="st2" width="27.78" height="22.11"/>
	<rect x="151.512" y="36.283" class="st2" width="27.78" height="22.11"/>
	<rect x="38.126" y="78.803" class="st2" width="27.78" height="22.11"/>
	<rect x="264.898" y="78.803" class="st2" width="27.78" height="22.11"/>
	<rect x="208.205" y="78.803" class="st2" width="27.78" height="22.11"/>
	<rect x="94.819" y="78.803" class="st2" width="27.78" height="22.11"/>
	<rect x="151.512" y="78.803" class="st2" width="27.78" height="22.11"/>
	<rect x="38.126" y="121.323" class="st2" width="27.78" height="22.11"/>
	<rect x="264.898" y="121.323" class="st2" width="27.78" height="22.11"/>
	<rect x="208.205" y="121.323" class="st2" width="27.78" height="22.11"/>
	<rect x="94.819" y="121.323" class="st2" width="27.78" height="22.11"/>
	<rect x="151.512" y="121.323" class="st2" width="27.78" height="22.11"/>
	<rect x="38.126" y="163.843" class="st2" width="27.78" height="22.11"/>
	<rect x="264.898" y="163.843" class="st2" width="27.78" height="22.11"/>
	<rect x="208.205" y="163.843" class="st2" width="27.78" height="22.11"/>
	<rect x="94.819" y="163.843" class="st2" width="27.78" height="22.11"/>
	<rect x="151.512" y="163.843" class="st2" width="27.78" height="22.11"/>
	<rect x="38.126" y="206.362" class="st2" width="27.78" height="22.11"/>
	<rect x="264.898" y="206.362" class="st2" width="27.78" height="22.11"/>
	<rect x="208.205" y="206.362" class="st2" width="27.78" height="22.11"/>
	<rect x="94.819" y="206.362" class="st2" width="27.78" height="22.11"/>
	<rect x="151.512" y="206.362" class="st2" width="27.78" height="22.11"/>
</g>
<g id="Letters_-_text" class="st1">
	<rect x="38.126" y="36.283" class="st3" width="27.78" height="22.11"/>
	<text transform="matrix(1 0 0 1 49.1958 51.7124)" class="st4 st5 st6">L</text>
	<rect x="264.898" y="36.283" class="st3" width="27.78" height="22.11"/>
	<text transform="matrix(1 0 0 1 275.9668 51.7124)" class="st4 st5 st6">L</text>
	<rect x="208.205" y="36.283" class="st3" width="27.78" height="22.11"/>
	<text transform="matrix(1 0 0 1 218.333 51.7124)" class="st4 st5 st6">R</text>
	<rect x="94.819" y="36.283" class="st3" width="27.78" height="22.11"/>
	<text transform="matrix(1 0 0 1 104.9468 51.7124)" class="st4 st5 st6">R</text>
	<rect x="151.512" y="36.283" class="st3" width="27.78" height="22.11"/>
	<text transform="matrix(1 0 0 1 162.5815 51.7124)" class="st4 st5 st6">L</text>
	<rect x="38.126" y="78.803" class="st3" width="27.78" height="22.11"/>
	<text transform="matrix(1 0 0 1 48.2534 94.2324)" class="st4 st5 st6">R</text>
	<rect x="264.898" y="78.803" class="st3" width="27.78" height="22.11"/>
	<text transform="matrix(1 0 0 1 267.0576 93.5034)" class="st4"><tspan x="0" y="0" class="st7 st8">XF</tspan><tspan x="7.909" y="0" class="st7 st8">L</tspan><tspan x="11.169" y="0" class="st7 st8">O</tspan><tspan x="16.52" y="0" class="st7 st8">W</tspan></text>
	<rect x="208.205" y="78.803" class="st3" width="27.78" height="22.11"/>
	<text transform="matrix(1 0 0 1 212.4551 93.5034)" class="st4 st7 st8">LIGHT</text>
	<rect x="94.819" y="78.803" class="st3" width="27.78" height="22.11"/>
	<text transform="matrix(1 0 0 1 105.1089 94.2324)" class="st4 st5 st6">1</text>
	<rect x="151.512" y="78.803" class="st3" width="27.78" height="22.11"/>
	<text transform="matrix(1 0 0 1 161.8013 94.2324)" class="st4 st5 st6">2</text>
	<rect x="38.126" y="121.323" class="st3" width="27.78" height="22.11"/>
	<text transform="matrix(1 0 0 1 49.1958 136.752)" class="st4 st5 st6">L</text>
	<rect x="264.898" y="121.323" class="st3" width="27.78" height="22.11"/>
	<text transform="matrix(1 0 0 1 266.1826 136.0225)" class="st4"><tspan x="0" y="0" class="st7 st8">ST</tspan><tspan x="7.29" y="0" class="st7 st8">R</tspan><tspan x="11.89" y="0" class="st7 st8">OBE</tspan></text>
	<rect x="208.205" y="121.323" class="st3" width="27.78" height="22.11"/>
	<text transform="matrix(1 0 0 1 214.915 136.0225)" class="st4"><tspan x="0" y="0" class="st7 st8">N</tspan><tspan x="5.17" y="0" class="st7 st8">A</tspan><tspan x="9.5" y="0" class="st7 st8">V</tspan></text>
	<rect x="94.819" y="121.323" class="st3" width="27.78" height="22.11"/>
	<text transform="matrix(1 0 0 1 104.9468 136.752)" class="st4 st5 st6">R</text>
	<rect x="151.512" y="121.323" class="st3" width="27.78" height="22.11"/>
	<text transform="matrix(1 0 0 1 151.9565 136.0225)" class="st4"><tspan x="0" y="0" class="st7 st8">BE</tspan><tspan x="7.9" y="0" class="st7 st8">A</tspan><tspan x="12.34" y="0" class="st7 st8">C</tspan><tspan x="16.3" y="0" class="st7 st8">ON</tspan></text>
	<rect x="38.126" y="163.843" class="st3" width="27.78" height="22.11"/>
	<text transform="matrix(1 0 0 1 44.7007 178.543)" class="st4"><tspan x="0" y="0" class="st7 st8">T</tspan><tspan x="3.24" y="0" class="st7 st8">AXI</tspan></text>
	<rect x="264.898" y="163.843" class="st3" width="27.78" height="22.11"/>
	<text transform="matrix(1 0 0 1 266.8076 178.543)" class="st4"><tspan x="0" y="0" class="st7 st8">SAF</tspan><tspan x="11.989" y="0" class="st7 st8">E</tspan><tspan x="15.749" y="0" class="st7 st8">T</tspan><tspan x="19.489" y="0" class="st7 st8">Y</tspan></text>
	<rect x="208.205" y="163.843" class="st3" width="27.78" height="22.11"/>
	<text transform="matrix(1 0 0 1 214.8994 178.543)" class="st4"><tspan x="0" y="0" class="st7 st8">BE</tspan><tspan x="7.899" y="0" class="st7 st8">L</tspan><tspan x="11.01" y="0" class="st7 st8">T</tspan></text>
	<rect x="94.819" y="163.843" class="st3" width="27.78" height="22.11"/>
	<text transform="matrix(1 0 0 1 99.4189 178.543)" class="st4 st7 st8">LNDG</text>
	<rect x="151.512" y="163.843" class="st3" width="27.78" height="22.11"/>
	<text transform="matrix(1 0 0 1 155.7314 178.543)" class="st4"><tspan x="0" y="0" class="st7 st8">L</tspan><tspan x="3.26" y="0" class="st7 st8">OGO</tspan></text>
	<rect x="38.126" y="206.362" class="st3" width="27.78" height="22.11"/>
	<text transform="matrix(1 0 0 1 44.0205 221.0625)" class="st4"><tspan x="0" y="0" class="st7 st8">T</tspan><tspan x="3.31" y="0" class="st7 st8">C</tspan><tspan x="7.58" y="0" class="st7 st8">A</tspan><tspan x="12.08" y="0" class="st7 st8">S</tspan></text>
	<rect x="264.898" y="206.362" class="st2" width="27.78" height="22.11"/>
	<rect x="208.205" y="206.362" class="st2" width="27.78" height="22.11"/>
	<rect x="94.819" y="206.362" class="st3" width="27.78" height="22.11"/>
	<text transform="matrix(1 0 0 1 103.4136 221.0625)" class="st4 st7 st8">ON</text>
	<rect x="151.512" y="206.362" class="st2" width="27.78" height="22.11"/>
</g>
<g id="Letters_-_outline">
	<g>
		<path d="M51.806,43.339v6.236h2.495v1.763h-4.57v-8H51.806z"/>
	</g>
	<g>
		<path d="M278.577,43.339v6.236h2.495v1.763h-4.569v-8H278.577z"/>
	</g>
	<g>
		<path d="M222.011,43.339c0.6,0,1.367,0.096,1.954,0.708c0.456,0.468,0.684,1.164,0.684,1.799c0,0.684-0.239,1.284-0.635,1.667
			c-0.312,0.3-0.732,0.479-1.104,0.551l2.506,3.274h-2.578l-1.991-3.07v3.07h-2.074v-8H222.011z M220.847,46.925h0.396
			c0.312,0,0.755-0.084,1.007-0.324c0.156-0.156,0.264-0.42,0.264-0.672c0-0.24-0.096-0.503-0.275-0.671
			c-0.192-0.192-0.54-0.312-0.995-0.312h-0.396V46.925z"/>
	</g>
	<g>
		<path d="M108.625,43.339c0.6,0,1.367,0.096,1.955,0.708c0.456,0.468,0.684,1.164,0.684,1.799c0,0.684-0.24,1.284-0.636,1.667
			c-0.312,0.3-0.731,0.479-1.104,0.551l2.507,3.274h-2.579l-1.991-3.07v3.07h-2.075v-8H108.625z M107.462,46.925h0.396
			c0.312,0,0.756-0.084,1.008-0.324c0.156-0.156,0.264-0.42,0.264-0.672c0-0.24-0.096-0.503-0.276-0.671
			c-0.192-0.192-0.54-0.312-0.996-0.312h-0.396V46.925z"/>
	</g>
	<g>
		<path d="M165.192,43.339v6.236h2.494v1.763h-4.569v-8H165.192z"/>
	</g>
	<g>
		<path d="M51.932,85.859c0.6,0,1.367,0.096,1.955,0.708c0.456,0.468,0.684,1.164,0.684,1.799c0,0.684-0.24,1.284-0.636,1.667
			c-0.312,0.3-0.731,0.479-1.104,0.551l2.507,3.274h-2.579l-1.991-3.07v3.07h-2.075v-8H51.932z M50.769,89.444h0.396
			c0.312,0,0.756-0.084,1.008-0.324c0.156-0.156,0.264-0.42,0.264-0.672c0-0.24-0.096-0.503-0.276-0.671
			c-0.192-0.192-0.54-0.312-0.996-0.312h-0.396V89.444z"/>
	</g>
	<g>
		<path d="M269.973,93.186c-0.27-0.669-0.62-1.339-0.729-2.059c-0.15,0.71-0.43,1.379-0.689,2.059h-1.479l1.409-3.438l-1.409-3.229
			h1.479c0.229,0.56,0.629,1.37,0.689,1.959c0.14-0.689,0.46-1.319,0.729-1.959h1.419l-1.419,3.229l1.529,3.438H269.973z"/>
		<path d="M273.343,87.749v1.419h1.209v1.269h-1.209v2.749h-1.319V86.52h2.659v1.229H273.343z"/>
		<path d="M275.503,93.186V86.52h1.319v5.417h1.379v1.25H275.503z"/>
		<path d="M282.691,92.357c-0.39,0.55-1.049,0.939-1.738,0.939c-0.69,0-1.34-0.39-1.739-0.939c-0.51-0.7-0.6-1.659-0.6-2.499
			c0-0.859,0.09-1.789,0.6-2.509c0.39-0.56,1.06-0.929,1.739-0.929c0.689,0,1.339,0.379,1.738,0.929c0.51,0.7,0.6,1.669,0.6,2.509
			C283.29,90.718,283.201,91.637,282.691,92.357z M280.952,87.629c-0.87,0-0.94,1.589-0.94,2.199c0,0.609,0.07,2.199,0.94,2.199
			c0.869,0,0.939-1.589,0.939-2.199C281.892,89.219,281.822,87.629,280.952,87.629z"/>
		<path d="M289.121,93.186h-1.149c-0.21-0.919-0.42-1.849-0.65-2.769c-0.159-0.649-0.199-1.309-0.229-1.969
			c-0.06,0.709-0.17,1.419-0.34,2.119l-0.63,2.619h-1.149l-1.349-6.667h1.349l0.54,2.929c0.1,0.549,0.17,1.119,0.17,1.679
			c0.06-0.54,0.14-1.079,0.25-1.609l0.619-2.999h1.04l0.68,3.348c0.08,0.42,0.149,0.84,0.189,1.259c0-0.649,0.061-1.299,0.18-1.938
			l0.48-2.669h1.379L289.121,93.186z"/>
	</g>
	<g>
		<path d="M212.715,93.186V86.52h1.319v5.417h1.379v1.25H212.715z"/>
		<path d="M216.005,93.186V86.52h1.319v6.667H216.005z"/>
		<path d="M222.713,89.478c0.01,0.17,0.01,0.34,0.01,0.51c0,0.47-0.02,0.95-0.119,1.409c-0.221,1.029-0.89,1.899-2.02,1.899
			c-1.799,0-2.368-1.939-2.368-3.418c0-1.529,0.499-3.458,2.368-3.458c1.02,0,1.68,0.64,1.959,1.579l-1.279,0.5
			c-0.06-0.39-0.17-0.919-0.67-0.919c-0.899,0-0.969,1.649-0.969,2.279c0,0.66,0.029,2.239,0.979,2.239
			c0.72,0,0.799-0.899,0.81-1.439h-0.84v-1.179H222.713z"/>
		<path d="M226.254,93.186v-2.948h-1.329v2.948h-1.319V86.52h1.319v2.469h1.329V86.52h1.319v6.667H226.254z"/>
		<path d="M230.445,87.74v5.447h-1.319V87.74h-1.029v-1.22h3.378v1.22H230.445z"/>
	</g>
	<g>
		<path d="M108.241,87.622h-1.14v-1.763h3.214v8h-2.075V87.622z"/>
	</g>
	<g>
		<path d="M168.61,93.948h-6.416l2.027-2.123c0.719-0.755,1.259-1.415,1.643-2.027c0.216-0.335,0.432-0.731,0.432-1.247
			c0-0.084,0-0.504-0.24-0.768c-0.119-0.132-0.323-0.24-0.587-0.24c-0.336,0-0.564,0.156-0.696,0.324
			c-0.192,0.252-0.276,0.708-0.288,0.983h-2.147c0.012-1.043,0.468-1.799,0.888-2.219c0.54-0.54,1.271-0.864,2.267-0.864
			c1.199,0,1.896,0.468,2.255,0.828c0.324,0.324,0.779,0.936,0.779,1.967c0,1.008-0.468,1.703-1.188,2.375l-1.343,1.247h2.614
			V93.948z"/>
	</g>
	<g>
		<path d="M51.806,128.378v6.237h2.495v1.763h-4.57v-8H51.806z"/>
	</g>
	<g>
		<path d="M269.452,130.549c-0.271-0.229-0.58-0.43-0.95-0.43c-0.39,0-0.659,0.26-0.659,0.649c0,1.149,1.999,1.13,1.999,2.988
			c0,1.149-0.689,2.06-1.899,2.06c-0.409,0-0.81-0.11-1.149-0.34v-1.26c0.3,0.2,0.61,0.36,0.979,0.36c0.45,0,0.78-0.28,0.78-0.74
			c0-0.12-0.021-0.229-0.07-0.34c-0.12-0.25-0.49-0.47-0.71-0.619c-0.749-0.521-1.229-1-1.229-1.97c0-1.049,0.61-1.968,1.739-1.968
			c0.45,0,0.779,0.1,1.17,0.32V130.549z"/>
		<path d="M272.443,130.259v5.447h-1.319v-5.447h-1.029v-1.219h3.378v1.219H272.443z"/>
		<path d="M276.483,135.706l-1.17-3.068v3.068h-1.319v-6.667h1.43c0.489,0,1.029,0.04,1.449,0.32c0.529,0.35,0.789,1,0.789,1.619
			c0,0.76-0.3,1.3-0.949,1.699l1.159,3.028H276.483z M275.313,131.908c0.07,0.01,0.15,0.01,0.22,0.01c0.57,0,0.85-0.39,0.85-0.93
			c0-0.539-0.239-0.909-0.819-0.909h-0.25V131.908z"/>
		<path d="M282.521,134.877c-0.39,0.549-1.049,0.939-1.738,0.939c-0.69,0-1.34-0.391-1.739-0.939c-0.51-0.7-0.6-1.659-0.6-2.499
			c0-0.859,0.09-1.789,0.6-2.509c0.39-0.56,1.06-0.929,1.739-0.929c0.689,0,1.339,0.379,1.738,0.929c0.51,0.7,0.6,1.669,0.6,2.509
			C283.12,133.237,283.031,134.157,282.521,134.877z M280.783,130.149c-0.87,0-0.94,1.589-0.94,2.198c0,0.61,0.07,2.199,0.94,2.199
			c0.869,0,0.939-1.589,0.939-2.199C281.722,131.738,281.652,130.149,280.783,130.149z"/>
		<path d="M285.422,129.039c0.35,0,0.939,0.02,1.399,0.47c0.359,0.35,0.55,0.9,0.55,1.439c0,0.33-0.07,0.66-0.31,0.95
			c-0.11,0.13-0.28,0.289-0.53,0.39c0.43,0.16,0.64,0.46,0.72,0.59c0.19,0.319,0.23,0.689,0.23,0.939c0,0.499-0.131,0.949-0.5,1.319
			c-0.51,0.51-1.18,0.569-1.569,0.569h-1.399v-6.667H285.422z M285.332,131.778c0.21-0.01,0.45-0.1,0.58-0.229
			c0.189-0.19,0.21-0.471,0.21-0.62c0-0.16-0.021-0.41-0.21-0.6c-0.11-0.11-0.29-0.2-0.58-0.2V131.778z M285.332,134.566
			c0.21,0,0.45-0.069,0.6-0.21c0.14-0.13,0.25-0.359,0.25-0.649c0-0.319-0.11-0.56-0.26-0.699c-0.16-0.141-0.399-0.21-0.59-0.21
			V134.566z"/>
		<path d="M288.363,135.706v-6.667h2.648v1.24h-1.329v1.438h1.17v1.26h-1.17v1.499h1.35v1.229H288.363z"/>
	</g>
	<g>
		<path d="M218.064,135.711l-1.64-4.018c0.051,0.25,0.07,0.51,0.07,0.76v3.258h-1.319v-6.667h1.249l1.64,4.028
			c-0.06-0.3-0.1-0.6-0.1-0.899v-3.128h1.339v6.667H218.064z"/>
		<path d="M222.994,135.711l-0.25-1.119h-1.329l-0.239,1.119h-1.319l1.559-6.667h1.38l1.599,6.667H222.994z M222.545,133.563
			c-0.141-0.64-0.28-1.27-0.38-1.919c-0.04-0.29-0.08-0.59-0.11-0.88c-0.06,0.939-0.25,1.869-0.439,2.799H222.545z"/>
		<path d="M227.165,135.711h-1.08l-1.929-6.667h1.419l0.71,2.579c0.16,0.59,0.26,1.199,0.33,1.81c0.05-0.61,0.119-1.22,0.289-1.81
			l0.73-2.579h1.379L227.165,135.711z"/>
	</g>
	<g>
		<path d="M108.625,128.378c0.6,0,1.367,0.096,1.955,0.708c0.456,0.468,0.684,1.163,0.684,1.799c0,0.684-0.24,1.283-0.636,1.667
			c-0.312,0.3-0.731,0.48-1.104,0.552l2.507,3.274h-2.579l-1.991-3.07v3.07h-2.075v-8H108.625z M107.462,131.964h0.396
			c0.312,0,0.756-0.083,1.008-0.323c0.156-0.156,0.264-0.42,0.264-0.672c0-0.239-0.096-0.504-0.276-0.672
			c-0.192-0.191-0.54-0.312-0.996-0.312h-0.396V131.964z"/>
	</g>
	<g>
		<path d="M153.887,129.039c0.35,0,0.94,0.02,1.399,0.47c0.36,0.35,0.55,0.9,0.55,1.439c0,0.33-0.07,0.66-0.31,0.95
			c-0.11,0.13-0.28,0.289-0.529,0.39c0.43,0.16,0.64,0.46,0.719,0.59c0.19,0.319,0.23,0.689,0.23,0.939
			c0,0.499-0.13,0.949-0.5,1.319c-0.51,0.51-1.18,0.569-1.569,0.569h-1.399v-6.667H153.887z M153.797,131.778
			c0.21-0.01,0.45-0.1,0.58-0.229c0.19-0.19,0.21-0.471,0.21-0.62c0-0.16-0.02-0.41-0.21-0.6c-0.11-0.11-0.29-0.2-0.58-0.2V131.778z
			 M153.797,134.566c0.21,0,0.45-0.069,0.6-0.21c0.14-0.13,0.25-0.359,0.25-0.649c0-0.319-0.11-0.56-0.26-0.699
			c-0.16-0.141-0.4-0.21-0.59-0.21V134.566z"/>
		<path d="M156.828,135.706v-6.667h2.649v1.24h-1.33v1.438h1.169v1.26h-1.169v1.499h1.35v1.229H156.828z"/>
		<path d="M163.026,135.706l-0.25-1.119h-1.329l-0.24,1.119h-1.319l1.56-6.667h1.379l1.599,6.667H163.026z M162.577,133.557
			c-0.14-0.64-0.28-1.27-0.38-1.919c-0.04-0.29-0.08-0.59-0.11-0.88c-0.06,0.939-0.25,1.869-0.44,2.799H162.577z"/>
		<path d="M168.056,135.566c-0.29,0.159-0.55,0.21-0.909,0.21c-0.64,0-1.13-0.15-1.579-0.6c-0.47-0.47-0.9-1.29-0.9-2.699
			c0-0.669,0.08-1.948,0.959-2.838c0.55-0.549,1.149-0.669,1.6-0.669c0.3,0,0.569,0.07,0.829,0.19v1.359
			c-0.25-0.229-0.52-0.289-0.729-0.289c-0.35,0-0.58,0.149-0.729,0.3c-0.36,0.359-0.55,1.049-0.55,1.908c0,0.17,0,1.229,0.47,1.749
			c0.15,0.17,0.39,0.32,0.75,0.32c0.22,0,0.52-0.07,0.789-0.32V135.566z"/>
		<path d="M172.706,134.877c-0.39,0.549-1.049,0.939-1.738,0.939c-0.69,0-1.34-0.391-1.739-0.939c-0.51-0.7-0.6-1.659-0.6-2.499
			c0-0.859,0.09-1.789,0.6-2.509c0.39-0.56,1.06-0.929,1.739-0.929c0.689,0,1.339,0.379,1.738,0.929c0.51,0.7,0.6,1.669,0.6,2.509
			C173.305,133.237,173.215,134.157,172.706,134.877z M170.967,130.149c-0.87,0-0.94,1.589-0.94,2.198c0,0.61,0.07,2.199,0.94,2.199
			c0.869,0,0.939-1.589,0.939-2.199C171.907,131.738,171.836,130.149,170.967,130.149z"/>
		<path d="M177.086,135.706l-1.64-4.018c0.051,0.25,0.07,0.51,0.07,0.76v3.258h-1.319v-6.667h1.249l1.64,4.028
			c-0.06-0.3-0.1-0.6-0.1-0.899v-3.128h1.339v6.667H177.086z"/>
	</g>
	<g>
		<path d="M47.31,172.783v5.447h-1.319v-5.447h-1.029v-1.219h3.378v1.219H47.31z"/>
		<path d="M51.37,178.231l-0.25-1.119h-1.329l-0.24,1.119h-1.319l1.56-6.666h1.379l1.599,6.666H51.37z M50.92,176.082
			c-0.14-0.64-0.28-1.27-0.38-1.919c-0.04-0.29-0.08-0.59-0.11-0.88c-0.06,0.939-0.25,1.869-0.44,2.799H50.92z"/>
		<path d="M55.7,178.231c-0.27-0.67-0.62-1.339-0.729-2.059c-0.15,0.709-0.43,1.379-0.69,2.059h-1.479l1.409-3.438l-1.409-3.228
			h1.479c0.23,0.56,0.63,1.369,0.69,1.959c0.14-0.69,0.459-1.319,0.729-1.959h1.419l-1.419,3.228l1.529,3.438H55.7z"/>
		<path d="M57.751,178.231v-6.666h1.319v6.666H57.751z"/>
	</g>
	<g>
		<path d="M269.898,173.069c-0.271-0.229-0.58-0.43-0.95-0.43c-0.39,0-0.659,0.26-0.659,0.649c0,1.149,1.999,1.13,1.999,2.988
			c0,1.149-0.689,2.06-1.899,2.06c-0.409,0-0.81-0.11-1.149-0.34v-1.26c0.3,0.2,0.61,0.36,0.979,0.36c0.45,0,0.78-0.28,0.78-0.74
			c0-0.12-0.021-0.229-0.07-0.34c-0.12-0.25-0.49-0.47-0.71-0.619c-0.749-0.521-1.229-1-1.229-1.969c0-1.05,0.61-1.97,1.739-1.97
			c0.45,0,0.779,0.101,1.17,0.32V173.069z"/>
		<path d="M273.707,178.226l-0.25-1.119h-1.329l-0.239,1.119h-1.319l1.559-6.666h1.38l1.599,6.666H273.707z M273.258,176.077
			c-0.141-0.64-0.28-1.27-0.38-1.919c-0.04-0.29-0.08-0.59-0.11-0.88c-0.06,0.939-0.25,1.869-0.439,2.799H273.258z"/>
		<path d="M276.978,172.788v1.42h1.209v1.27h-1.209v2.748h-1.319v-6.666h2.659v1.229H276.978z"/>
		<path d="M279.138,178.226v-6.666h2.648v1.239h-1.329v1.438h1.17v1.26h-1.17v1.499h1.35v1.229H279.138z"/>
		<path d="M284.727,172.779v5.447h-1.319v-5.447h-1.029v-1.219h3.378v1.219H284.727z"/>
		<path d="M289.036,175.377v2.849h-1.318v-2.849l-1.6-3.817h1.449l0.489,1.449c0.091,0.27,0.221,0.689,0.3,0.989
			c0.12-0.51,0.19-0.689,0.29-1l0.46-1.438h1.479L289.036,175.377z"/>
	</g>
	<g>
		<path d="M216.828,171.565c0.35,0,0.939,0.02,1.399,0.47c0.359,0.35,0.55,0.899,0.55,1.438c0,0.33-0.07,0.66-0.31,0.95
			c-0.11,0.13-0.28,0.29-0.53,0.39c0.43,0.16,0.64,0.46,0.72,0.59c0.19,0.319,0.23,0.689,0.23,0.939c0,0.499-0.131,0.949-0.5,1.319
			c-0.51,0.51-1.18,0.569-1.569,0.569h-1.399v-6.666H216.828z M216.738,174.303c0.21-0.01,0.45-0.1,0.58-0.23
			c0.189-0.189,0.21-0.47,0.21-0.619c0-0.16-0.021-0.41-0.21-0.6c-0.11-0.11-0.29-0.2-0.58-0.2V174.303z M216.738,177.091
			c0.21,0,0.45-0.069,0.6-0.21c0.14-0.13,0.25-0.359,0.25-0.649c0-0.319-0.11-0.56-0.26-0.699c-0.16-0.141-0.399-0.21-0.59-0.21
			V177.091z"/>
		<path d="M219.769,178.231v-6.666h2.648v1.239h-1.329v1.438h1.17v1.26h-1.17v1.499h1.35v1.229H219.769z"/>
		<path d="M223.318,178.231v-6.666h1.319v5.417h1.379v1.249H223.318z"/>
		<path d="M228.258,172.783v5.447h-1.319v-5.447h-1.029v-1.219h3.378v1.219H228.258z"/>
	</g>
	<g>
		<path d="M99.86,178.226v-6.666h1.319v5.417h1.379v1.249H99.86z"/>
		<path d="M106.038,178.226l-1.639-4.018c0.05,0.25,0.07,0.51,0.07,0.76v3.258h-1.319v-6.666h1.25l1.639,4.027
			c-0.06-0.3-0.1-0.6-0.1-0.899v-3.128h1.339v6.666H106.038z"/>
		<path d="M109.429,171.56c0.49,0,0.9,0.02,1.35,0.229c1.189,0.54,1.529,1.949,1.529,3.139c0,1.799-0.679,3.298-2.698,3.298h-1.29
			v-6.666H109.429z M109.679,177.006c1.049,0.011,1.31-1.259,1.31-2.089c0-0.659-0.15-1.519-0.68-1.959
			c-0.21-0.18-0.4-0.22-0.67-0.229v4.277H109.679z"/>
		<path d="M117.547,174.518c0.01,0.17,0.01,0.34,0.01,0.51c0,0.47-0.02,0.949-0.12,1.409c-0.22,1.029-0.89,1.899-2.019,1.899
			c-1.799,0-2.369-1.939-2.369-3.419c0-1.528,0.5-3.458,2.369-3.458c1.02,0,1.679,0.64,1.959,1.579l-1.279,0.5
			c-0.06-0.39-0.17-0.919-0.669-0.919c-0.899,0-0.97,1.648-0.97,2.278c0,0.659,0.03,2.238,0.979,2.238c0.72,0,0.8-0.899,0.81-1.438
			h-0.839v-1.18H117.547z"/>
	</g>
	<g>
		<path d="M156.178,178.226v-6.666h1.319v5.417h1.379v1.249H156.178z"/>
		<path d="M163.366,177.397c-0.39,0.549-1.05,0.939-1.739,0.939s-1.339-0.391-1.739-0.939c-0.509-0.7-0.6-1.659-0.6-2.499
			c0-0.859,0.09-1.789,0.6-2.509c0.39-0.56,1.06-0.93,1.739-0.93c0.689,0,1.339,0.38,1.739,0.93c0.51,0.7,0.6,1.669,0.6,2.509
			C163.966,175.757,163.876,176.677,163.366,177.397z M161.627,172.669c-0.87,0-0.939,1.589-0.939,2.198
			c0,0.61,0.07,2.199,0.939,2.199s0.939-1.589,0.939-2.199C162.567,174.258,162.497,172.669,161.627,172.669z"/>
		<path d="M169.206,174.518c0.01,0.17,0.01,0.34,0.01,0.51c0,0.47-0.021,0.949-0.12,1.409c-0.22,1.029-0.89,1.899-2.019,1.899
			c-1.799,0-2.369-1.939-2.369-3.419c0-1.528,0.5-3.458,2.369-3.458c1.02,0,1.679,0.64,1.959,1.579l-1.279,0.5
			c-0.061-0.39-0.17-0.919-0.67-0.919c-0.899,0-0.97,1.648-0.97,2.278c0,0.659,0.03,2.238,0.979,2.238c0.72,0,0.8-0.899,0.81-1.438
			h-0.84v-1.18H169.206z"/>
		<path d="M174.026,177.397c-0.39,0.549-1.049,0.939-1.738,0.939c-0.69,0-1.34-0.391-1.739-0.939c-0.51-0.7-0.6-1.659-0.6-2.499
			c0-0.859,0.09-1.789,0.6-2.509c0.39-0.56,1.06-0.93,1.739-0.93c0.689,0,1.339,0.38,1.738,0.93c0.51,0.7,0.6,1.669,0.6,2.509
			C174.625,175.757,174.535,176.677,174.026,177.397z M172.287,172.669c-0.87,0-0.94,1.589-0.94,2.198c0,0.61,0.07,2.199,0.94,2.199
			c0.869,0,0.939-1.589,0.939-2.199C173.227,174.258,173.156,172.669,172.287,172.669z"/>
	</g>
	<g>
		<path d="M46.495,215.298v5.447h-1.319v-5.447h-1.029v-1.219h3.378v1.219H46.495z"/>
		<path d="M51.214,220.606c-0.29,0.159-0.55,0.21-0.909,0.21c-0.64,0-1.129-0.15-1.579-0.6c-0.47-0.47-0.9-1.29-0.9-2.699
			c0-0.669,0.08-1.948,0.959-2.838c0.55-0.55,1.149-0.67,1.599-0.67c0.3,0,0.57,0.07,0.83,0.189v1.359
			c-0.25-0.229-0.52-0.289-0.729-0.289c-0.35,0-0.58,0.149-0.729,0.3c-0.36,0.359-0.55,1.049-0.55,1.908c0,0.17,0,1.229,0.47,1.749
			c0.15,0.17,0.39,0.32,0.75,0.32c0.22,0,0.52-0.07,0.79-0.32V220.606z"/>
		<path d="M54.895,220.745l-0.25-1.119h-1.329l-0.24,1.119h-1.319l1.56-6.666h1.379l1.599,6.666H54.895z M54.444,218.597
			c-0.14-0.64-0.28-1.27-0.379-1.919c-0.04-0.29-0.08-0.59-0.11-0.88c-0.06,0.939-0.25,1.869-0.44,2.799H54.444z"/>
		<path d="M59.495,215.588c-0.27-0.229-0.58-0.43-0.949-0.43c-0.39,0-0.66,0.26-0.66,0.649c0,1.149,1.999,1.13,1.999,2.988
			c0,1.149-0.69,2.06-1.899,2.06c-0.41,0-0.809-0.11-1.149-0.34v-1.26c0.3,0.2,0.609,0.36,0.979,0.36c0.45,0,0.779-0.28,0.779-0.74
			c0-0.12-0.02-0.229-0.07-0.34c-0.12-0.25-0.49-0.47-0.709-0.619c-0.75-0.521-1.229-1-1.229-1.969c0-1.05,0.609-1.97,1.739-1.97
			c0.45,0,0.78,0.101,1.169,0.32V215.588z"/>
	</g>
	<g>
		<path d="M107.938,219.916c-0.39,0.549-1.05,0.939-1.739,0.939s-1.339-0.391-1.739-0.939c-0.509-0.7-0.6-1.659-0.6-2.499
			c0-0.859,0.09-1.789,0.6-2.509c0.39-0.56,1.06-0.93,1.739-0.93c0.689,0,1.339,0.38,1.739,0.93c0.51,0.7,0.6,1.669,0.6,2.509
			C108.538,218.277,108.448,219.197,107.938,219.916z M106.199,215.189c-0.87,0-0.939,1.589-0.939,2.198
			c0,0.61,0.07,2.199,0.939,2.199s0.939-1.589,0.939-2.199C107.138,216.778,107.068,215.189,106.199,215.189z"/>
		<path d="M112.318,220.745l-1.639-4.018c0.05,0.25,0.07,0.51,0.07,0.76v3.258h-1.319v-6.666h1.25l1.639,4.027
			c-0.06-0.3-0.1-0.6-0.1-0.899v-3.128h1.339v6.666H112.318z"/>
	</g>
</g>
</svg>
